# xmcd CD database file
#
# Track frame offsets:
#	150
#	8537
#	21813
#	36093
#	48498
#	61960
#	78072
#	91886
#	101480
#	114531
#	127486
#	141639
#	155081
#	169295
#	183562
#	196684
#	210368
#
# Disc length: 2976 seconds
#
# Revision: 0
# Processed by: cddbd v1.5PL3 Copyright (c) Steve Scherf et al.
# Submitted via: Feurio! 1.63 - http://www.feurio.com
#
DISCID=e50b9e11
DTITLE=Leadbelly - BLUES LEGENDS
DYEAR=1900
DGENRE=Blues
TTITLE0=On Monday
TTITLE1=See See Rider
TTITLE2=Alberta
TTITLE3=Eagle Rock Rag
TTITLE4=Pick A Ball Of Cotton
TTITLE5=Leaving Blues
TTITLE6=Alabama Bound
TTITLE7=Midnight Special
TTITLE8=Good Morning Blues
TTITLE9=Packin' Trunk
TTITLE10=The Red Cross Store Blues
TTITLE11=Death Letter Blues Pt. 1
TTITLE12=I'm On My Last Go Round
TTITLE13=Easy Rider
TTITLE14=Ox Drivin' Blues
TTITLE15=New York City
TTITLE16=Rock Island Line
EXTD=
EXTT0=
EXTT1=
EXTT2=
EXTT3=
EXTT4=
EXTT5=
EXTT6=
EXTT7=
EXTT8=
EXTT9=
EXTT10=
EXTT11=
EXTT12=
EXTT13=
EXTT14=
EXTT15=
EXTT16=
PLAYORDER=
